<?xml version="1.0" encoding="UTF-8" standalone="no"?>
<!-- Created with Inkscape (http://www.inkscape.org/) -->

<svg
   xmlns:dc="http://purl.org/dc/elements/1.1/"
   xmlns:cc="http://creativecommons.org/ns#"
   xmlns:rdf="http://www.w3.org/1999/02/22-rdf-syntax-ns#"
   xmlns:svg="http://www.w3.org/2000/svg"
   xmlns="http://www.w3.org/2000/svg"
   xmlns:xlink="http://www.w3.org/1999/xlink"
   xmlns:sodipodi="http://sodipodi.sourceforge.net/DTD/sodipodi-0.dtd"
   xmlns:inkscape="http://www.inkscape.org/namespaces/inkscape"
   width="48"
   height="48"
   id="svg7854"
   sodipodi:version="0.32"
   inkscape:version="0.91 r13725"
   version="1.0"
   sodipodi:docname="mricrogl.svg"
   inkscape:output_extension="org.inkscape.output.svg.inkscape"
   sodipodi:modified="true">
  <defs
     id="defs7856">
    <linearGradient
       inkscape:collect="always"
       id="linearGradient4554">
      <stop
         style="stop-color:#ffffff;stop-opacity:1;"
         offset="0"
         id="stop4556" />
      <stop
         style="stop-color:#ffffff;stop-opacity:0;"
         offset="1"
         id="stop4558" />
    </linearGradient>
    <linearGradient
       inkscape:collect="always"
       id="linearGradient4540">
      <stop
         style="stop-color:#ffffff;stop-opacity:1;"
         offset="0"
         id="stop4542" />
      <stop
         style="stop-color:#ffffff;stop-opacity:0;"
         offset="1"
         id="stop4544" />
    </linearGradient>
    <linearGradient
       inkscape:collect="always"
       id="linearGradient4530">
      <stop
         style="stop-color:#ffffff;stop-opacity:1;"
         offset="0"
         id="stop4532" />
      <stop
         style="stop-color:#ffffff;stop-opacity:0;"
         offset="1"
         id="stop4534" />
    </linearGradient>
    <linearGradient
       id="linearGradient5656">
      <stop
         style="stop-color:#4e83c7;stop-opacity:1;"
         offset="0"
         id="stop5658" />
      <stop
         id="stop5665"
         offset="0.24324325"
         style="stop-color:#4573a9;stop-opacity:1;" />
      <stop
         style="stop-color:#729fcf;stop-opacity:1"
         offset="1"
         id="stop5660" />
    </linearGradient>
    <linearGradient
       id="linearGradient5785">
      <stop
         style="stop-color:#f1f1f0;stop-opacity:1;"
         offset="0"
         id="stop5787" />
      <stop
         style="stop-color:#555753;stop-opacity:1;"
         offset="1"
         id="stop5789" />
    </linearGradient>
    <linearGradient
       id="linearGradient5737">
      <stop
         style="stop-color:#babdb6;stop-opacity:1;"
         offset="0"
         id="stop5739" />
      <stop
         style="stop-color:#dddedb;stop-opacity:1;"
         offset="1"
         id="stop5741" />
    </linearGradient>
    <linearGradient
       id="linearGradient5660">
      <stop
         style="stop-color:#cbcbcb;stop-opacity:1;"
         offset="0"
         id="stop5662" />
      <stop
         style="stop-color:#9f9f9f;stop-opacity:1;"
         offset="1"
         id="stop5664" />
    </linearGradient>
    <linearGradient
       id="linearGradient5633">
      <stop
         style="stop-color:#f8f8f8;stop-opacity:1;"
         offset="0"
         id="stop5635" />
      <stop
         style="stop-color:#c7c7c1;stop-opacity:1;"
         offset="1"
         id="stop5637" />
    </linearGradient>
    <linearGradient
       id="linearGradient5611">
      <stop
         style="stop-color:#5e5e5e;stop-opacity:1;"
         offset="0"
         id="stop5613" />
      <stop
         style="stop-color:#929292;stop-opacity:1;"
         offset="1"
         id="stop5615" />
    </linearGradient>
    <linearGradient
       id="linearGradient6842">
      <stop
         style="stop-color:#d8d9d7;stop-opacity:1;"
         offset="0"
         id="stop6844" />
      <stop
         style="stop-color:#7c7f79;stop-opacity:1;"
         offset="1"
         id="stop6846" />
    </linearGradient>
    <linearGradient
       id="linearGradient6832">
      <stop
         style="stop-color:#555753;stop-opacity:1;"
         offset="0"
         id="stop6834" />
      <stop
         style="stop-color:#838680;stop-opacity:1;"
         offset="1"
         id="stop6836" />
    </linearGradient>
    <linearGradient
       id="linearGradient5048">
      <stop
         style="stop-color:black;stop-opacity:0;"
         offset="0"
         id="stop5050" />
      <stop
         id="stop5056"
         offset="0.5"
         style="stop-color:black;stop-opacity:1;" />
      <stop
         style="stop-color:black;stop-opacity:0;"
         offset="1"
         id="stop5052" />
    </linearGradient>
    <linearGradient
       id="linearGradient5534">
      <stop
         style="stop-color:#888a85;stop-opacity:1;"
         offset="0"
         id="stop5536" />
      <stop
         style="stop-color:#6b6d68;stop-opacity:1;"
         offset="1"
         id="stop5538" />
    </linearGradient>
    <linearGradient
       inkscape:collect="always"
       id="linearGradient5508">
      <stop
         style="stop-color:white;stop-opacity:1;"
         offset="0"
         id="stop5510" />
      <stop
         style="stop-color:white;stop-opacity:0;"
         offset="1"
         id="stop5512" />
    </linearGradient>
    <linearGradient
       id="linearGradient5491">
      <stop
         style="stop-color:#959792;stop-opacity:1;"
         offset="0"
         id="stop5493" />
      <stop
         id="stop5501"
         offset="0.25"
         style="stop-color:#838681;stop-opacity:1;" />
      <stop
         id="stop5499"
         offset="0.62437075"
         style="stop-color:#abaca9;stop-opacity:1;" />
      <stop
         style="stop-color:#ffffff;stop-opacity:1;"
         offset="0.79695714"
         id="stop5771" />
      <stop
         style="stop-color:#90928d;stop-opacity:1;"
         offset="1"
         id="stop5495" />
    </linearGradient>
    <radialGradient
       inkscape:collect="always"
       xlink:href="#linearGradient5508"
       id="radialGradient4347"
       cx="36.988056"
       cy="52.693916"
       fx="36.988056"
       fy="52.693916"
       r="13.706234"
       gradientTransform="matrix(1,0,0,0.66210043,0,17.805252)"
       gradientUnits="userSpaceOnUse" />
    <filter
       inkscape:collect="always"
       style="color-interpolation-filters:sRGB"
       id="filter4474"
       x="-0.025853447"
       width="1.0517069"
       y="-0.032504593"
       height="1.0650092">
      <feGaussianBlur
         inkscape:collect="always"
         stdDeviation="0.4626982"
         id="feGaussianBlur4476" />
    </filter>
    <radialGradient
       inkscape:collect="always"
       xlink:href="#linearGradient4530"
       id="radialGradient4536"
       cx="32.032116"
       cy="51.909496"
       fx="32.032116"
       fy="51.909496"
       r="4.5982582"
       gradientTransform="matrix(1,0,0,0.4595775,-8.5907481,32.17655)"
       gradientUnits="userSpaceOnUse" />
    <radialGradient
       inkscape:collect="always"
       xlink:href="#linearGradient4540"
       id="radialGradient4546"
       cx="25.639614"
       cy="47.194191"
       fx="25.639614"
       fy="47.194191"
       r="3.716855"
       gradientTransform="matrix(1,0,0,0.55109976,0,21.685315)"
       gradientUnits="userSpaceOnUse" />
    <radialGradient
       inkscape:collect="always"
       xlink:href="#linearGradient4554"
       id="radialGradient4560"
       cx="36.328453"
       cy="44.183067"
       fx="36.328453"
       fy="44.183067"
       r="4.049953"
       gradientTransform="matrix(1,0,0,0.45922451,0,24.073769)"
       gradientUnits="userSpaceOnUse" />
    <radialGradient
       inkscape:collect="always"
       xlink:href="#linearGradient4554"
       id="radialGradient4562"
       cx="48.140862"
       cy="46.171143"
       fx="48.140862"
       fy="46.171143"
       r="4.1573656"
       gradientTransform="matrix(1,0,0,0.5603072,0,21.264185)"
       gradientUnits="userSpaceOnUse" />
    <radialGradient
       inkscape:collect="always"
       xlink:href="#linearGradient4554"
       id="radialGradient4564"
       cx="52.000298"
       cy="55.008293"
       fx="52.000298"
       fy="55.008293"
       r="3.5634505"
       gradientTransform="matrix(1,0,0,0.69283127,0,17.474939)"
       gradientUnits="userSpaceOnUse" />
  </defs>
  <sodipodi:namedview
     id="base"
     pagecolor="#ffffff"
     bordercolor="#e0e0e0"
     borderopacity="1"
     gridtolerance="10000"
     guidetolerance="10"
     objecttolerance="10"
     inkscape:pageopacity="0.0"
     inkscape:pageshadow="2"
     inkscape:zoom="9.21875"
     inkscape:cx="10.85861"
     inkscape:cy="19.689837"
     inkscape:document-units="px"
     inkscape:current-layer="layer1"
     width="48px"
     height="48px"
     inkscape:showpageshadow="false"
     inkscape:window-width="1315"
     inkscape:window-height="855"
     inkscape:window-x="89"
     inkscape:window-y="8"
     showgrid="false"
     inkscape:window-maximized="0" />
  <metadata
     id="metadata7859">
    <rdf:RDF>
      <cc:Work
         rdf:about="">
        <dc:format>image/svg+xml</dc:format>
        <dc:type
           rdf:resource="http://purl.org/dc/dcmitype/StillImage" />
        <dc:creator>
          <cc:Agent>
            <dc:title>Jakub Steiner</dc:title>
          </cc:Agent>
        </dc:creator>
        <dc:source>http://jimmac.musichall.cz</dc:source>
        <cc:license
           rdf:resource="http://creativecommons.org/licenses/GPL/2.0/" />
        <dc:title />
        <dc:subject>
          <rdf:Bag>
            <rdf:li>file</rdf:li>
            <rdf:li>roller</rdf:li>
            <rdf:li>compressed</rdf:li>
            <rdf:li>handler</rdf:li>
            <rdf:li>unzip</rdf:li>
            <rdf:li>tar</rdf:li>
            <rdf:li>archive</rdf:li>
            <rdf:li>extract</rdf:li>
            <rdf:li>compress</rdf:li>
          </rdf:Bag>
        </dc:subject>
      </cc:Work>
      <cc:License
         rdf:about="http://creativecommons.org/licenses/GPL/2.0/">
        <cc:permits
           rdf:resource="http://web.resource.org/cc/Reproduction" />
        <cc:permits
           rdf:resource="http://web.resource.org/cc/Distribution" />
        <cc:requires
           rdf:resource="http://web.resource.org/cc/Notice" />
        <cc:permits
           rdf:resource="http://web.resource.org/cc/DerivativeWorks" />
        <cc:requires
           rdf:resource="http://web.resource.org/cc/ShareAlike" />
        <cc:requires
           rdf:resource="http://web.resource.org/cc/SourceCode" />
      </cc:License>
    </rdf:RDF>
  </metadata>
  <g
     inkscape:label="Layer 1"
     inkscape:groupmode="layer"
     id="layer1">
    <g
       id="g4770"
       transform="matrix(1.0398981,0,0,1.2335765,-15.183682,-46.273823)">
      <path
         inkscape:connector-curvature="0"
         style="fill:#000000;fill-opacity:1;fill-rule:evenodd;stroke:none;stroke-width:1;stroke-linecap:butt;stroke-linejoin:miter;stroke-miterlimit:4;stroke-dasharray:none;stroke-opacity:1;filter:url(#filter4474)"
         d="m 38.012404,41.517849 c -6.165531,-0.02336 -13.719137,3.993892 -17.171876,6.726563 -3.452738,2.732672 -3.565555,4.000145 -4.160156,7.611328 -0.594601,3.611184 0.52011,8.210864 2.035156,10.001953 1.515045,1.791086 4.196607,0.206309 5.488281,1.771484 1.291674,1.565174 1.202343,3.476133 0.708984,5.751953 1.465513,2.029034 2.053272,2.644842 4.335938,2.125 2.282667,-0.519842 2.521192,-5.051715 5.044922,-6.373047 2.523731,-1.321333 5.645663,0.465996 7.611329,-0.61914 1.965666,-1.085136 2.125,-4.691407 2.125,-4.691407 0,10e-7 8.369203,1.175276 11.240234,-0.708984 2.871031,-1.88426 4.024609,-3.524729 4.160157,-6.105469 0.135545,-2.58074 0.06189,-4.927115 -2.478516,-7.523437 -2.540406,-2.596322 -12.773923,-7.943437 -18.939453,-7.966797 z m -5.23047,19.056641 c 0.718496,-0.06663 1.355,0.281728 1.746094,1.291015 1.564376,4.037149 -5.07412,5.0155 -6.060547,3.767578 -0.73982,-0.935941 2.158966,-4.858701 4.314453,-5.058593 z"
         id="path4368" />
      <path
         id="path4322"
         d="m 37.511719,39.890625 c -6.16553,-0.02336 -13.719136,3.993892 -17.171875,6.726563 -3.452738,2.732672 -3.565555,4.000145 -4.160156,7.611328 -0.594601,3.611184 0.52011,8.210864 2.035156,10.001953 1.515045,1.791086 4.196607,0.206309 5.488281,1.771484 1.291674,1.565174 1.202343,3.476133 0.708984,5.751953 1.465513,2.029034 2.053272,2.644842 4.335938,2.125 2.282667,-0.519842 2.521192,-5.051715 5.044922,-6.373047 2.52373,-1.321333 5.645662,0.465996 7.611328,-0.61914 1.965666,-1.085136 2.125,-4.691407 2.125,-4.691407 0,10e-7 8.369203,1.175276 11.240234,-0.708984 2.871031,-1.88426 4.024609,-3.524729 4.160157,-6.105469 0.135545,-2.58074 0.06189,-4.927115 -2.478516,-7.523437 C 53.910766,45.2611 43.677249,39.913985 37.511719,39.890625 Z M 32.28125,58.947266 c 0.718496,-0.06663 1.355,0.281728 1.746094,1.291015 1.564375,4.037149 -5.07412,5.0155 -6.060547,3.767578 -0.73982,-0.935941 2.158966,-4.858701 4.314453,-5.058593 z"
         style="fill:#d6d88b;fill-opacity:1;fill-rule:evenodd;stroke:#000000;stroke-width:1;stroke-linecap:butt;stroke-linejoin:miter;stroke-miterlimit:4;stroke-dasharray:none;stroke-opacity:1"
         inkscape:connector-curvature="0" />
      <ellipse
         ry="10.076272"
         rx="13.706234"
         cy="52.693916"
         cx="36.988056"
         id="path4339"
         style="opacity:0.77600002;fill:url(#radialGradient4347);fill-opacity:1;stroke:none;stroke-width:1;stroke-miterlimit:4;stroke-dasharray:none" />
      <path
         style="fill:#f1000d;fill-opacity:1;fill-rule:evenodd;stroke:none;stroke-width:0.1;stroke-linecap:butt;stroke-linejoin:miter;stroke-miterlimit:4;stroke-dasharray:none;stroke-opacity:1"
         d="m 21.055906,57.453203 c -0.603442,-0.636036 -2.331851,0.767267 -2.701915,-0.354037 -0.370064,-1.121305 1.476037,-1.326786 3.202599,-1.972366 1.726562,-0.645581 3.927152,-0.491822 5.675651,0.957114 1.7485,1.448936 -5.496661,3.603957 -6.965326,2.685428 -1.468666,-0.918528 1.392432,-0.680103 0.788991,-1.316139 z"
         id="path4498"
         inkscape:connector-curvature="0"
         sodipodi:nodetypes="zzzzzz" />
      <path
         sodipodi:nodetypes="zzczz"
         inkscape:connector-curvature="0"
         id="path4500"
         d="m 27.797193,47.534015 c 0.603441,0.636036 1.783228,-0.153819 2.084804,0.971149 0.301575,1.124967 -5.468389,2.72194 -7.232621,1.272381 -1.23424,-1.088954 3.902456,-4.272494 5.371123,-3.353965 1.468665,0.918528 -0.826748,0.474399 -0.223306,1.110435 z"
         style="fill:#243e97;fill-opacity:1;fill-rule:evenodd;stroke:none;stroke-width:0.1;stroke-linecap:butt;stroke-linejoin:miter;stroke-miterlimit:4;stroke-dasharray:none;stroke-opacity:1" />
      <path
         style="fill:#0cc3ee;fill-opacity:1;fill-rule:evenodd;stroke:none;stroke-width:0.1;stroke-linecap:butt;stroke-linejoin:miter;stroke-miterlimit:4;stroke-dasharray:none;stroke-opacity:1"
         d="m 37.341419,43.850995 c 0.838901,0.0035 2.405121,-2.244709 3.5092,-0.57926 0.645581,1.726562 -0.98934,3.145454 -3.476986,3.104354 -2.487646,-0.0411 -5.609569,-0.251214 -4.073929,-2.491269 1.535641,-2.240054 3.202813,-0.03734 4.041715,-0.03383 z"
         id="path4502"
         inkscape:connector-curvature="0"
         sodipodi:nodetypes="zczzz" />
      <path
         sodipodi:nodetypes="czzzzc"
         inkscape:connector-curvature="0"
         id="path4504"
         d="m 48.057578,49.109754 c -1.09887,-0.01367 -2.493081,2.450159 -3.953854,0.644877 -1.460773,-1.805282 3.352975,-3.584502 4.404452,-3.71686 1.051476,-0.132357 0.845252,2.089685 2.191336,0.958297 1.346085,-1.131387 2.472586,3.439623 -0.09157,3.674066 -2.564158,0.234443 -1.965751,-1.598136 -2.550361,-1.56038 z"
         style="fill:#ff298c;fill-opacity:1;fill-rule:evenodd;stroke:none;stroke-width:0.1;stroke-linecap:butt;stroke-linejoin:miter;stroke-miterlimit:4;stroke-dasharray:none;stroke-opacity:1" />
      <path
         style="fill:#00b332;fill-opacity:1;fill-rule:evenodd;stroke:none;stroke-width:0.1;stroke-linecap:butt;stroke-linejoin:miter;stroke-miterlimit:4;stroke-dasharray:none;stroke-opacity:1"
         d="m 48.618029,59.210509 c -1.124536,-1.243685 0.400965,-1.540415 0.515711,-2.142077 0.114747,-0.601661 -0.409871,-0.428309 -0.594907,-0.937535 -0.370064,-1.018452 5.024429,-2.303878 6.082454,-1.40668 1.058024,0.897197 -1.318296,1.616641 0.533055,2.037058 0.798579,0.181347 -1.271309,2.255425 -2.26337,2.429789 -0.992066,0.174363 -0.830641,-1.033579 -1.256418,-1.03001 -0.851552,0.0071 -2.428508,1.699774 -3.016525,1.049455 z"
         id="path4506"
         inkscape:connector-curvature="0"
         sodipodi:nodetypes="ssszssss" />
      <path
         inkscape:transform-center-y="0.53692176"
         inkscape:transform-center-x="1.1505466"
         sodipodi:nodetypes="zzzzzz"
         inkscape:connector-curvature="0"
         id="path4516"
         d="m 20.979203,57.3765 c -0.603442,-0.636036 -2.331851,0.767267 -2.701915,-0.354037 -0.370064,-1.121305 1.476037,-1.326786 3.202599,-1.972366 1.726562,-0.645581 3.927152,-0.491822 5.675651,0.957114 1.7485,1.448936 -5.496661,3.603957 -6.965326,2.685428 -1.468666,-0.918528 1.392432,-0.680103 0.788991,-1.316139 z"
         style="opacity:0.51799999;fill:url(#radialGradient4536);fill-opacity:1;fill-rule:evenodd;stroke:none;stroke-width:0.1;stroke-linecap:butt;stroke-linejoin:miter;stroke-miterlimit:4;stroke-dasharray:none;stroke-opacity:1" />
      <path
         style="opacity:0.31400003;fill:url(#radialGradient4546);fill-opacity:1;fill-rule:evenodd;stroke:none;stroke-width:0.1;stroke-linecap:butt;stroke-linejoin:miter;stroke-miterlimit:4;stroke-dasharray:none;stroke-opacity:1"
         d="m 27.797193,47.534015 c 0.603441,0.636036 1.783228,-0.153819 2.084804,0.971149 0.301575,1.124967 -5.468389,2.72194 -7.232621,1.272381 -1.23424,-1.088954 3.902456,-4.272494 5.371123,-3.353965 1.468665,0.918528 -0.826748,0.474399 -0.223306,1.110435 z"
         id="path4538"
         inkscape:connector-curvature="0"
         sodipodi:nodetypes="zzczz" />
      <path
         sodipodi:nodetypes="zczzz"
         inkscape:connector-curvature="0"
         id="path4548"
         d="m 37.341419,43.850995 c 0.838901,0.0035 2.405121,-2.244709 3.5092,-0.57926 0.645581,1.726562 -0.98934,3.145454 -3.476986,3.104354 -2.487646,-0.0411 -5.609569,-0.251214 -4.073929,-2.491269 1.535641,-2.240054 3.202813,-0.03734 4.041715,-0.03383 z"
         style="opacity:0;fill:url(#radialGradient4560);fill-opacity:1;fill-rule:evenodd;stroke:none;stroke-width:0.1;stroke-linecap:butt;stroke-linejoin:miter;stroke-miterlimit:4;stroke-dasharray:none;stroke-opacity:1" />
      <path
         style="opacity:0;fill:url(#radialGradient4562);fill-opacity:1;fill-rule:evenodd;stroke:none;stroke-width:0.1;stroke-linecap:butt;stroke-linejoin:miter;stroke-miterlimit:4;stroke-dasharray:none;stroke-opacity:1"
         d="m 48.057578,49.109754 c -1.09887,-0.01367 -2.493081,2.450159 -3.953854,0.644877 -1.460773,-1.805282 3.352975,-3.584502 4.404452,-3.71686 1.051476,-0.132357 0.845252,2.089685 2.191336,0.958297 1.346085,-1.131387 2.472586,3.439623 -0.09157,3.674066 -2.564158,0.234443 -1.965751,-1.598136 -2.550361,-1.56038 z"
         id="path4550"
         inkscape:connector-curvature="0"
         sodipodi:nodetypes="czzzzc" />
      <path
         sodipodi:nodetypes="ssszssss"
         inkscape:connector-curvature="0"
         id="path4552"
         d="m 48.618029,59.210509 c -1.124536,-1.243685 0.400965,-1.540415 0.515711,-2.142077 0.114747,-0.601661 -0.409871,-0.428309 -0.594907,-0.937535 -0.370064,-1.018452 5.024429,-2.303878 6.082454,-1.40668 1.058024,0.897197 -1.318296,1.616641 0.533055,2.037058 0.798579,0.181347 -1.271309,2.255425 -2.26337,2.429789 -0.992066,0.174363 -0.830641,-1.033579 -1.256418,-1.03001 -0.851552,0.0071 -2.428508,1.699774 -3.016525,1.049455 z"
         style="opacity:0;fill:url(#radialGradient4564);fill-opacity:1;fill-rule:evenodd;stroke:none;stroke-width:0.1;stroke-linecap:butt;stroke-linejoin:miter;stroke-miterlimit:4;stroke-dasharray:none;stroke-opacity:1" />
    </g>
  </g>
  <g
     inkscape:groupmode="layer"
     id="layer2"
     inkscape:label="Layer 2" />
</svg>
